<svg width="910" height="899" viewBox="0 0 910 899" fill="none" xmlns="http://www.w3.org/2000/svg">
<path fill-rule="evenodd" clip-rule="evenodd" d="M777.834 181.614L392.813 0L0.526552 188.879L0 188.635V189.132V451.49V717.486L392.813 896.953L392.812 898.373L778.351 680.146V574.668V432.819V301.882L778.351 181.858L778.351 181.36L777.834 181.614Z" fill="url(#paint0_linear_93_9)"/>
<path d="M392.813 896.953L0 717.486V451.49V188.635L392.813 370.493V621.953V636.502V651.051V896.953Z" fill="url(#paint1_linear_93_9)"/>
<path d="M778.351 181.36L392.812 370.493V476.465V634.941V778.349V898.373L778.351 680.146V574.668V432.819V301.882V181.36Z" fill="url(#paint2_linear_93_9)"/>
<path d="M392.813 370.99L778.351 181.858L392.813 0L0 189.132L392.813 370.99Z" fill="url(#paint3_linear_93_9)"/>
<path d="M778.351 181.858L392.812 370.991L458.281 898.87L843.82 680.644L778.351 181.858Z" fill="url(#paint4_linear_93_9)"/>
<g filter="url(#filter0_b_93_9)">
<path d="M778.351 181.858L392.812 370.991L523.75 898.87L909.289 680.644L778.351 181.858Z" fill="url(#paint5_linear_93_9)"/>
</g>
<defs>
<filter id="filter0_b_93_9" x="342.812" y="131.858" width="616.477" height="817.012" filterUnits="userSpaceOnUse" color-interpolation-filters="sRGB">
<feFlood flood-opacity="0" result="BackgroundImageFix"/>
<feGaussianBlur in="BackgroundImage" stdDeviation="25"/>
<feComposite in2="SourceAlpha" operator="in" result="effect1_backgroundBlur_93_9"/>
<feBlend mode="normal" in="SourceGraphic" in2="effect1_backgroundBlur_93_9" result="shape"/>
</filter>
<linearGradient id="paint0_linear_93_9" x1="735.109" y1="203.606" x2="633.771" y2="803.304" gradientUnits="userSpaceOnUse">
<stop stop-color="#2754BA"/>
<stop offset="1" stop-color="#123962"/>
</linearGradient>
<linearGradient id="paint1_linear_93_9" x1="393" y1="324.5" x2="196" y2="826" gradientUnits="userSpaceOnUse">
<stop offset="0.0729167" stop-color="white" stop-opacity="0.72"/>
<stop offset="1" stop-color="white" stop-opacity="0.2"/>
</linearGradient>
<linearGradient id="paint2_linear_93_9" x1="393" y1="744.499" x2="447.5" y2="746.499" gradientUnits="userSpaceOnUse">
<stop stop-color="white" stop-opacity="0.6"/>
<stop offset="1" stop-color="white" stop-opacity="0.2"/>
</linearGradient>
<linearGradient id="paint3_linear_93_9" x1="313.5" y1="329.5" x2="389" y2="47.5" gradientUnits="userSpaceOnUse">
<stop stop-color="white" stop-opacity="0.75"/>
<stop offset="1" stop-color="white" stop-opacity="0.3"/>
</linearGradient>
<linearGradient id="paint4_linear_93_9" x1="447.37" y1="749.254" x2="491.016" y2="741.98" gradientUnits="userSpaceOnUse">
<stop stop-color="#0099FD"/>
<stop offset="1" stop-color="#0579C6"/>
</linearGradient>
<linearGradient id="paint5_linear_93_9" x1="410.998" y1="378.264" x2="909.289" y2="698.334" gradientUnits="userSpaceOnUse">
<stop stop-color="#FFE875"/>
<stop offset="1" stop-color="#FFD400"/>
</linearGradient>
</defs>
</svg>
