<svg width="909" height="897" viewBox="0 0 909 897" fill="none" xmlns="http://www.w3.org/2000/svg">
<g clip-path="url(#clip0_100_23)">
<path fill-rule="evenodd" clip-rule="evenodd" d="M777.834 180.614L392.813 -1L0.526552 187.879L0 187.635V188.132V450.49V716.486L392.813 895.953L392.812 897.373L778.351 679.146V573.668V431.819V300.882L778.351 180.858L778.351 180.36L777.834 180.614Z" fill="url(#paint0_linear_100_23)"/>
<path opacity="0.9" d="M392.813 895.953L0 716.486V450.49V187.635L392.813 369.493V620.953V635.502V650.051V895.953Z" fill="url(#paint1_linear_100_23)"/>
<path opacity="0.9" d="M778.351 180.36L392.812 369.493V475.465V633.941V777.349V897.373L778.351 679.146V573.668V431.819V300.882V180.36Z" fill="url(#paint2_linear_100_23)"/>
<path opacity="0.9" d="M392.813 369.99L778.351 180.858L392.813 -1L0 188.132L392.813 369.99Z" fill="url(#paint3_linear_100_23)"/>
<path d="M778.351 180.858L392.812 369.991L458.281 897.87L843.82 679.644L778.351 180.858Z" fill="url(#paint4_linear_100_23)"/>
<g filter="url(#filter0_b_100_23)">
<path d="M778.351 180.858L392.812 369.991L523.75 897.87L909.289 679.644L778.351 180.858Z" fill="url(#paint5_linear_100_23)"/>
</g>
<g filter="url(#filter1_b_100_23)">
<path d="M778.351 180.858L392.812 369.991L523.75 897.87L909.289 679.644L778.351 180.858Z" fill="url(#paint6_linear_100_23)"/>
</g>
</g>
<defs>
<filter id="filter0_b_100_23" x="342.812" y="130.858" width="616.477" height="817.012" filterUnits="userSpaceOnUse" color-interpolation-filters="sRGB">
<feFlood flood-opacity="0" result="BackgroundImageFix"/>
<feGaussianBlur in="BackgroundImage" stdDeviation="25"/>
<feComposite in2="SourceAlpha" operator="in" result="effect1_backgroundBlur_100_23"/>
<feBlend mode="normal" in="SourceGraphic" in2="effect1_backgroundBlur_100_23" result="shape"/>
</filter>
<filter id="filter1_b_100_23" x="342.812" y="130.858" width="616.477" height="817.012" filterUnits="userSpaceOnUse" color-interpolation-filters="sRGB">
<feFlood flood-opacity="0" result="BackgroundImageFix"/>
<feGaussianBlur in="BackgroundImage" stdDeviation="25"/>
<feComposite in2="SourceAlpha" operator="in" result="effect1_backgroundBlur_100_23"/>
<feBlend mode="normal" in="SourceGraphic" in2="effect1_backgroundBlur_100_23" result="shape"/>
</filter>
<linearGradient id="paint0_linear_100_23" x1="735.109" y1="202.606" x2="633.771" y2="802.304" gradientUnits="userSpaceOnUse">
<stop stop-color="#2754BA"/>
<stop offset="1" stop-color="#123962"/>
</linearGradient>
<linearGradient id="paint1_linear_100_23" x1="393" y1="323.5" x2="196" y2="825" gradientUnits="userSpaceOnUse">
<stop offset="0.0729167" stop-color="white" stop-opacity="0.72"/>
<stop offset="1" stop-color="white" stop-opacity="0.2"/>
</linearGradient>
<linearGradient id="paint2_linear_100_23" x1="393" y1="743.499" x2="447.5" y2="745.499" gradientUnits="userSpaceOnUse">
<stop stop-color="white" stop-opacity="0.6"/>
<stop offset="1" stop-color="white" stop-opacity="0.2"/>
</linearGradient>
<linearGradient id="paint3_linear_100_23" x1="313.5" y1="328.5" x2="389" y2="46.5" gradientUnits="userSpaceOnUse">
<stop stop-color="white" stop-opacity="0.75"/>
<stop offset="1" stop-color="white" stop-opacity="0.3"/>
</linearGradient>
<linearGradient id="paint4_linear_100_23" x1="447.37" y1="748.254" x2="491.016" y2="740.98" gradientUnits="userSpaceOnUse">
<stop stop-color="#0099FD"/>
<stop offset="1" stop-color="#0579C6"/>
</linearGradient>
<linearGradient id="paint5_linear_100_23" x1="410.998" y1="377.264" x2="909.289" y2="697.334" gradientUnits="userSpaceOnUse">
<stop stop-color="#FFE875"/>
<stop offset="1" stop-color="#FFD400"/>
</linearGradient>
<linearGradient id="paint6_linear_100_23" x1="410.998" y1="377.264" x2="909.289" y2="697.334" gradientUnits="userSpaceOnUse">
<stop stop-color="#FFE875"/>
<stop offset="1" stop-color="#FFD400"/>
</linearGradient>
<clipPath id="clip0_100_23">
<rect width="909" height="897" fill="white"/>
</clipPath>
</defs>
</svg>
